<svg xmlns="http://www.w3.org/2000/svg" xmlns:xlink="http://www.w3.org/1999/xlink" viewBox="0 0 711.499 271.048"><defs><clipPath id="b" transform="translate(44.099 22.008)"><path fill="none" d="M0 20h181v147.836H0z"/></clipPath><clipPath id="c" transform="translate(44.099 22.008)"><path fill="none" d="M9.991 61.207v8.046h2.014a8.049 8.049 0 0 1 0 16.1H9.991V93.4h2.014a8.048 8.048 0 0 1 0 16.1H9.991v8.048h2.014a8.048 8.048 0 0 1 0 16.095H9.991v8.045h2.014a8.049 8.049 0 0 1 0 16.1H9.991v8.047h169v-22.13h-2.012a30.178 30.178 0 0 1 0-60.356h2.012V61.207z"/></clipPath><linearGradient id="d" x1=".157" x2="2.169" y1="-.255" y2="-.255" gradientTransform="scale(211.469) rotate(90 .655 .047)" gradientUnits="userSpaceOnUse"><stop offset="0" stop-color="#c93b54"/><stop offset="1" stop-color="#e26338"/></linearGradient><clipPath id="e" transform="translate(44.099 22.008)"><path fill="none" d="M0 20h180.999v147.836H0z"/></clipPath><clipPath id="f" transform="translate(44.099 22.008)"><path fill="none" d="M12.005 63.219v4.024a10.059 10.059 0 1 1 0 20.117v4.025a10.06 10.06 0 0 1 0 20.119v4.024a10.059 10.059 0 1 1 0 20.118v4.024a10.059 10.059 0 1 1 0 20.117v4.025h164.973v-18.106a32.19 32.19 0 0 1 0-64.38V63.219z"/></clipPath><clipPath id="g" transform="translate(44.099 22.008)"><path fill="none" d="M10.059 22.012h132.533v139.264H10.059z"/></clipPath><clipPath id="h" transform="translate(44.099 22.008)"><path fill="none" d="M12.005 63.219v4.024a10.061 10.061 0 0 1 2.818 19.718l2.908 5.517 1.778-.94a8.048 8.048 0 1 1 7.508 14.238l-1.78.94 3.754 7.118 1.78-.94a7.941 7.941 0 0 1 3.743-.929 8.049 8.049 0 0 1 3.764 15.169l-1.781.938 3.754 7.116 1.779-.936a7.938 7.938 0 0 1 3.744-.933 8.05 8.05 0 0 1 3.762 15.169l-1.778.94 3.752 7.118 78.306-41.286L119.5 95.685l-1.781.935a30.161 30.161 0 0 1-43.484-33.4z"/></clipPath><linearGradient id="a" x1="-1.014" x2=".998" y1=".804" y2=".804" gradientTransform="matrix(0 -153.52 -153.52 0 194.29 93.838)" gradientUnits="userSpaceOnUse"><stop offset="0" stop-color="#069fcc"/><stop offset="1" stop-color="#0474c5"/></linearGradient><clipPath id="i" transform="translate(44.099 22.008)"><path fill="none" d="M2.718 64l3.754 7.118 1.779-.938A7.936 7.936 0 0 1 12 69.253a8.048 8.048 0 0 1 3.759 15.167l-1.781.938 3.753 7.12 1.778-.94a8.048 8.048 0 1 1 7.508 14.238l-1.78.94 3.754 7.118 1.78-.94a7.941 7.941 0 0 1 3.743-.929 8.049 8.049 0 0 1 3.764 15.169l-1.781.938 3.754 7.116 1.779-.936a7.938 7.938 0 0 1 3.744-.933 8.049 8.049 0 0 1 3.762 15.169l-1.778.94 3.752 7.118 78.306-41.286L119.5 95.685l-1.781.935a30.177 30.177 0 1 1-28.15-53.387l1.779-.939-10.324-19.576z"/></clipPath><linearGradient id="j" x1="-1.014" x2=".998" y1=".693" y2=".693" gradientTransform="scale(153.52) rotate(-90 .84 -.284)" xlink:href="#a"/></defs><g clip-path="url(#b)"><g clip-path="url(#c)"><path fill="url(#d)" d="M-3.863 19.13h196.707v188.771H-3.863z" transform="rotate(-40 146.773 63.94)"/></g><g clip-path="url(#e)"><path fill="#333" d="M221.076 85.227v18.107a32.19 32.19 0 1 0 0 64.38v18.106H56.099v-4.023a10.06 10.06 0 0 0 0-20.119v-4.024a10.059 10.059 0 1 0 0-20.118v-4.028a10.06 10.06 0 0 0 0-20.119v-4.02a10.059 10.059 0 0 0 0-20.118v-4.024h164.977m4.023-4.019H52.079v12.067h4.02a6.036 6.036 0 1 1 0 12.071h-4.02v12.071h4.02a6.036 6.036 0 1 1 0 12.071h-4.02v12.071h4.02a6.036 6.036 0 1 1 0 12.071h-4.02v12.072h4.02a6.036 6.036 0 1 1 0 12.071h-4.02v12.071h173.02V163.69h-4.024a28.166 28.166 0 1 1 0-56.332h4.024v-26.15z"/></g><g clip-path="url(#f)"><g clip-path="url(#g)" opacity=".15"><path d="M101.916 173.447l1.779-.94a8.049 8.049 0 0 0-3.763-15.167 7.921 7.921 0 0 0-3.744.931l-1.778.938-3.754-7.116 1.78-.94a8.048 8.048 0 1 0-7.508-14.238l-1.781.938-3.748-7.116 1.781-.94a8.048 8.048 0 1 0-7.508-14.238l-1.779.938-3.754-7.118 1.78-.94a8.048 8.048 0 1 0-7.51-14.236l-1.778.94-3.754-7.118 78.3-41.288 10.322 19.578-1.78.937a30.178 30.178 0 1 0 28.15 53.389l1.78-.937 10.321 19.577-78.3 41.284z"/><path d="M134.341 49.455l8.444 16.019a32.19 32.19 0 1 0 30.027 56.948l8.443 16.018-74.744 39.408-1.877-3.561a10.061 10.061 0 1 0-9.384-17.8l-1.877-3.557a10.06 10.06 0 1 0-9.383-17.8l-1.875-3.557a10.061 10.061 0 1 0-9.384-17.8l-1.877-3.561a10.06 10.06 0 1 0-9.383-17.8l-1.872-3.546 74.742-39.411m1.682-5.436l-3.559 1.877-74.745 39.412-3.561 1.877 1.877 3.559 1.877 3.559 1.875 3.559 3.561-1.875a5.941 5.941 0 0 1 2.805-.7 6.037 6.037 0 0 1 2.824 11.377l-3.559 1.874 1.881 3.559 1.875 3.559 1.878 3.559 3.557-1.877a5.956 5.956 0 0 1 2.8-.7 6.036 6.036 0 0 1 2.823 11.375l-3.559 1.877 1.879 3.559 1.875 3.561 1.877 3.557 3.559-1.875a5.949 5.949 0 0 1 2.806-.7 6.037 6.037 0 0 1 2.83 11.381l-3.559 1.877 1.877 3.559 1.877 3.559 1.875 3.559 3.561-1.875a5.944 5.944 0 0 1 2.807-.7 6.037 6.037 0 0 1 2.823 11.378l-3.561 1.878 1.875 3.559 1.879 3.559 1.875 3.561 3.559-1.88 74.746-39.408 3.559-1.875-1.877-3.561-8.446-16.018-1.87-3.559-3.559 1.877a28.166 28.166 0 1 1-26.275-49.83l3.561-1.877-1.877-3.561-8.45-16.015z"/></g></g><g clip-path="url(#h)"><path fill="url(#a)" d="M5.449 37.712h130.922v144.34H5.449z" transform="rotate(-67.8 109.335 88.074)"/></g><g clip-path="url(#f)"><path fill="#333" d="M124.281 47.443l8.444 16.019a32.19 32.19 0 1 0 30.027 56.946l8.447 16.02-74.748 39.409-1.877-3.561a10.06 10.06 0 1 0-9.383-17.8l-1.877-3.557a10.06 10.06 0 1 0-9.383-17.8l-1.876-3.557a10.06 10.06 0 1 0-9.383-17.8l-1.873-3.554a10.06 10.06 0 1 0-9.383-17.8l-1.881-3.554 74.746-39.411m1.682-5.435l-3.559 1.877L47.66 83.293l-3.561 1.877 1.877 3.559 1.877 3.559 1.875 3.559 3.561-1.875a5.94 5.94 0 0 1 2.8-.7 6.037 6.037 0 0 1 2.825 11.377l-3.555 1.877 1.877 3.559 1.875 3.559 1.877 3.564 3.561-1.877a5.96 5.96 0 0 1 2.805-.7 6.036 6.036 0 0 1 2.822 11.377l-3.559 1.877 1.879 3.559 1.876 3.561 1.877 3.557 3.559-1.875a5.945 5.945 0 0 1 2.806-.7 6.037 6.037 0 0 1 2.823 11.377l-3.559 1.877 1.877 3.559 1.877 3.559 1.875 3.559 3.561-1.875a5.943 5.943 0 0 1 2.807-.7 6.036 6.036 0 0 1 2.824 11.374l-3.559 1.877 1.875 3.559 1.879 3.559 1.875 3.561 3.559-1.879 74.747-39.409 3.559-1.875-1.877-3.561-8.448-16.016-1.875-3.559-3.559 1.877a28.167 28.167 0 1 1-26.276-49.83l3.559-1.877-1.877-3.561-8.441-16.015z"/></g><g clip-path="url(#i)"><path fill="url(#j)" d="M-19.698 5.511h171.929v168.241H-19.698z" transform="rotate(-67.8 104.692 67.823)"/></g><g clip-path="url(#e)"><path fill="#333" d="M124.281 47.443l8.444 16.019a32.19 32.19 0 1 0 30.027 56.946l8.447 16.02-74.748 39.409-1.877-3.561a10.06 10.06 0 1 0-9.383-17.8l-1.877-3.557a10.06 10.06 0 1 0-9.383-17.8l-1.876-3.557a10.06 10.06 0 1 0-9.383-17.8l-1.873-3.554a10.06 10.06 0 1 0-9.383-17.8l-1.881-3.554 74.746-39.411m1.682-5.435l-3.559 1.877L47.66 83.293l-3.561 1.877 1.877 3.559 1.877 3.559 1.875 3.561 3.561-1.877a5.94 5.94 0 0 1 2.8-.7 6.037 6.037 0 0 1 2.825 11.377l-3.555 1.877 1.877 3.559 1.875 3.559 1.877 3.564 3.561-1.879a5.96 5.96 0 0 1 2.805-.7 6.036 6.036 0 0 1 2.822 11.379l-3.559 1.877 1.879 3.559 1.876 3.561 1.877 3.557 3.559-1.875a5.945 5.945 0 0 1 2.806-.7 6.037 6.037 0 0 1 2.823 11.377l-3.559 1.877 1.877 3.559 1.877 3.559 1.875 3.559 3.561-1.875a5.943 5.943 0 0 1 2.807-.7 6.036 6.036 0 0 1 2.824 11.374l-3.559 1.877 1.875 3.559 1.879 3.559 1.875 3.561 3.559-1.877 74.747-39.411 3.559-1.875-1.877-3.561-8.448-16.016-1.875-3.559-3.559 1.877a28.167 28.167 0 1 1-26.276-49.83l3.559-1.877-1.877-3.561-8.441-16.015z"/></g></g><path fill="#333" d="M294.309 180.285v-78.739h-27.305v-7.874h64.008v7.874h-27.305v78.739zM374.319 120.85h8.636v59.435h-8.636v-47.371l-35.306 47.371h-8.636V120.85h8.636v48.006zM448.74 180.285h-9.78l-20.955-26.923h-9.525v26.923h-8.636V120.85h8.636v24.637h9.652l18.542-24.637h9.653l-21.591 28.193zM498.777 122.755a27.862 27.862 0 0 1 10.16 10.732 31.324 31.324 0 0 1 3.683 15.175q0 2.415-.127 3.683h-48.894a25.727 25.727 0 0 0 5.969 15.621q5.459 6.477 14.859 6.478 7.62 0 12.637-2.858a21.975 21.975 0 0 0 8.064-7.937l6.858 4.571a29.792 29.792 0 0 1-11.049 10.35 33.412 33.412 0 0 1-16.256 3.748 29.138 29.138 0 0 1-15.367-4.065 28.28 28.28 0 0 1-10.541-11.3 34.636 34.636 0 0 1-3.81-16.382 35.113 35.113 0 0 1 3.746-16.383 28 28 0 0 1 10.414-11.3 28.577 28.577 0 0 1 15.176-4.07 27.34 27.34 0 0 1 14.478 3.937zm5.207 22.479q-1.272-9.27-6.223-13.907t-13.462-4.635a18.307 18.307 0 0 0-13.525 5.27 24.1 24.1 0 0 0-6.668 13.272zM519.223 120.85h55.376v7.874h-24.262v34.8a9.783 9.783 0 0 0 2.859 7.428 10.643 10.643 0 0 0 7.682 2.732h7.62v7.873h-7.62q-8.889 0-14.033-4.952t-5.146-13.719v-34.162h-22.476zM625.899 122.755a27.862 27.862 0 0 1 10.16 10.732 31.323 31.323 0 0 1 3.682 15.175q0 2.415-.126 3.683h-48.891a25.727 25.727 0 0 0 5.969 15.621q5.458 6.477 14.859 6.478 7.62 0 12.637-2.858a21.975 21.975 0 0 0 8.064-7.937l6.858 4.571a29.792 29.792 0 0 1-11.049 10.35 33.412 33.412 0 0 1-16.256 3.748 29.138 29.138 0 0 1-15.367-4.065 28.28 28.28 0 0 1-10.541-11.3 34.636 34.636 0 0 1-3.81-16.382 35.113 35.113 0 0 1 3.746-16.383 28 28 0 0 1 10.414-11.3 28.577 28.577 0 0 1 15.177-4.064 27.34 27.34 0 0 1 14.474 3.931zm5.207 22.479q-1.272-9.27-6.223-13.907t-13.462-4.635a18.305 18.305 0 0 0-13.525 5.27 24.094 24.094 0 0 0-6.668 13.272zM697.149 122.882a28.313 28.313 0 0 1 10.541 11.3 37.553 37.553 0 0 1 .063 32.829 28.086 28.086 0 0 1-10.414 11.239 28.58 28.58 0 0 1-15.177 4.065 24.994 24.994 0 0 1-11.874-2.858 25.815 25.815 0 0 1-9.081-8.064v34.29h-8.635V120.85h8.635v8.758a26.512 26.512 0 0 1 9.018-7.937 24.345 24.345 0 0 1 11.684-2.853 28.912 28.912 0 0 1 15.24 4.064zm-4.319 48.514a20.807 20.807 0 0 0 7.367-8.447 27.292 27.292 0 0 0 2.667-12.254 28.015 28.015 0 0 0-2.665-12.447 20.744 20.744 0 0 0-7.367-8.509 19.17 19.17 0 0 0-10.668-3.047 19.706 19.706 0 0 0-10.858 3.047 20.574 20.574 0 0 0-7.43 8.509 29.785 29.785 0 0 0 0 24.638 20.552 20.552 0 0 0 7.43 8.51 19.715 19.715 0 0 0 10.858 3.048 19.179 19.179 0 0 0 10.666-3.048z"/></svg>